<?xml version="1.0" encoding="UTF-8"?>
<svg width="50px" height="50px" viewBox="0 0 50 50" version="1.1" xmlns="http://www.w3.org/2000/svg" xmlns:xlink="http://www.w3.org/1999/xlink">
    <title>联系</title>
    <g id="页面-1" stroke="none" stroke-width="1" fill="none" fill-rule="evenodd">
        <g id="首页备份" transform="translate(-996.000000, -2378.000000)" fill="#FFFFFF" fill-rule="nonzero">
            <g id="底" transform="translate(240.000000, 2353.000000)">
                <g id="编组-10备份-2" transform="translate(746.000000, 25.000000)">
                    <path d="M48.5614555,38.3253078 C48.4376671,37.9569088 48.3301721,37.6375154 48.3301721,37.0162336 C48.3301721,36.5485281 48.4651989,36.4501825 48.8193098,36.1937069 C49.0329211,36.0389191 49.339238,35.8164926 49.7613636,35.3790344 C50.9577206,34.1405234 51.6829044,33.3003663 52.104863,32.339763 C52.5256517,31.381374 52.6514873,30.2860782 52.6514873,28.5334462 C52.6514873,26.537248 51.4095922,24.5565495 49.5195104,23.0753914 C47.6303058,21.5956537 45.0968416,20.6170023 42.5033422,20.6170023 C39.7696775,20.6170023 37.5525568,21.4577025 35.9094669,22.7661918 C34.5187584,23.8741046 33.5369736,25.3182891 33.0001253,26.8715979 C32.4635277,28.4242383 32.3702373,30.0855434 32.7544285,31.6289926 C33.1575033,33.2484779 34.0882771,34.7407072 35.5846006,35.8428128 C36.9125585,36.8212553 38.4798212,37.5512437 40.1442179,37.9262437 C41.7045037,38.2781404 43.3518549,38.3182891 44.9689589,37.9594154 C46.9949031,37.5100505 47.1872493,37.6964642 47.5709392,38.0704616 C47.7629512,38.2574184 48.0114472,38.4994388 48.6851186,38.7172697 C48.6441344,38.5713807 48.6019385,38.445378 48.5614555,38.3253078 L48.5614555,38.3253078 Z M21.9479863,31.1322096 C21.8400735,31.4293352 21.7315759,31.7272965 21.6765541,32.1583209 C22.1408757,32.0147714 22.5523479,31.7725839 22.9597677,31.5329449 C23.7635361,31.0595993 24.5552724,30.5938991 25.743232,30.831867 C26.6920956,31.0222079 27.3915441,31.1543519 28.1326454,31.2385348 C28.8236965,31.3171193 29.5543951,31.3541765 30.562876,31.3586049 C30.3053977,30.6993887 30.2128593,29.910744 30.2308239,29.1081454 C30.2548045,28.0306888 30.4782754,26.9218152 30.765625,26.0661584 C31.533506,23.7841564 32.4960729,22.8951608 33.9471507,21.5552961 L34.0272393,21.4812236 C34.2062584,21.3161584 34.3106618,21.220612 34.4220839,21.130622 L34.4219168,21.1303713 C34.5287433,21.0437236 34.6450535,20.9605434 34.8495572,20.8174953 C35.8573279,20.1129499 36.9135194,19.566994 38.0691845,19.1975087 C39.1767213,18.8433977 40.375752,18.6507172 41.7098513,18.6350505 C41.5204295,17.8611116 41.2452373,17.1346327 40.8976019,16.4592483 C39.6177724,13.9707791 37.3475518,12.1637938 34.7040023,11.1353011 C32.0546875,10.1050538 29.0314171,9.85572226 26.250752,10.4843987 C25.2197527,10.7173951 24.2223011,11.0715896 23.2906083,11.5507841 C21.2860127,12.581867 19.7693432,13.9131671 18.7398479,15.4049786 C17.7525485,16.8353346 17.2116059,18.4155902 17.1158506,20.0214559 C17.0202624,21.6277393 17.3691093,23.2626407 18.1607203,24.801745 C19.0062667,26.4460465 20.3580381,27.9828529 22.2115224,29.262014 L22.2734375,29.3048366 L22.2734375,29.3809562 C22.2735211,30.2355685 22.1107537,30.6835548 21.9479863,31.1322096 Z M16.5883606,26.2059479 C15.6177306,24.4355184 15,22.3883927 15,20.4736618 C15,18.9169271 15.4898479,17.2284245 16.2698864,15.6832624 C17.0949616,14.0489041 18.2475351,12.5702527 19.4901404,11.5735949 C22.3374833,9.28887734 25.6184408,8.1096494 28.9357035,8.00733489 C32.2959141,7.90343282 35.6933072,8.90389238 38.7150318,10.9770458 C40.0135779,11.867253 41.0094001,12.8369221 41.796875,13.9419104 C42.5829295,15.0455618 43.1605531,16.2837804 43.6229947,17.7134261 C43.9078376,18.5915595 43.9964489,18.6011684 44.5260695,18.6572764 C44.7192931,18.6777477 44.9640291,18.7039425 45.2824198,18.767111 C46.3638035,18.9820174 47.4510779,19.3439408 48.4610211,19.834875 C49.4277239,20.3047112 50.3254094,20.8939492 51.0813837,21.5875488 C51.6122159,22.0746394 52.107119,22.557385 52.5552724,23.0861701 C53.0049716,23.6172112 53.4044535,24.1914926 53.7403493,24.857268 C54.5940007,26.5496143 54.9941928,28.1119472 54.9339489,29.6627076 C54.8737467,31.2131337 54.352607,32.7472246 53.3654746,34.3818336 C53.0413185,34.918264 52.4992898,35.5902644 51.9164021,36.2125488 C51.3560328,36.8113957 50.7554729,37.3670441 50.2727691,37.7144706 C50.4578459,38.5084211 50.662266,39.0667433 50.8243232,39.5091314 C51.1510277,40.4022213 51.3157169,40.8517116 50.855615,41.7483944 L50.8126253,41.832243 L50.7214238,41.8243887 C49.9531668,41.7584211 49.4732203,41.4490545 48.9439756,41.1083543 L48.7688001,40.9960966 L48.7688001,40.9964308 C48.5107008,40.832536 48.2477574,40.6763972 47.9803225,40.5282239 C47.730615,40.3894372 47.46499,40.2494388 47.174131,40.0965729 C46.4630264,39.7227426 46.4421374,39.7281738 45.8427891,39.893991 C45.7116477,39.9302126 45.5543533,39.9739124 45.3347677,40.0285164 C43.9996658,40.3613623 43.4848763,40.3560983 42.4110127,40.3446928 C42.2174549,40.3426457 42.0022978,40.3403897 41.6800217,40.3403897 C39.5237717,40.3403897 37.0595338,39.3968319 35.0406918,38.0093402 C33.082261,36.6635013 31.5360963,34.8945341 31.0851437,33.1565244 C30.2129011,33.3499151 29.3236547,33.3934479 28.4447694,33.3453195 C27.5249833,33.2953529 26.615767,33.143991 25.7490391,32.9597497 C24.3795956,32.6682223 23.2851354,33.3830869 22.2404328,34.0656153 C21.5614973,34.5091314 20.9015291,34.9401557 20.1844502,35.0957373 C19.5639205,35.2304716 19.2676721,35.019367 19.1764288,34.5982858 C19.0396892,33.9689826 19.4517045,32.8376324 19.8389455,31.7744639 C20.0340074,31.2390779 20.2231367,30.7201942 20.328501,30.3029566 C18.9019051,29.4911668 17.5650067,27.986989 16.5883606,26.2062821 L16.5883606,26.2059479 L16.5883606,26.2059479 Z M32.1765959,18.1901975 C31.8598346,17.8279398 31.6465575,17.3224669 31.6465575,16.6975922 C31.6465575,16.3372146 31.9101771,15.9516865 32.2761949,15.6582373 C32.6422126,15.3650388 33.1168951,15.1569422 33.5306651,15.1569422 C34.5076036,15.1569422 35.1177306,15.617253 35.3844001,16.211755 C35.4903493,16.4473834 35.5414021,16.7051541 35.5393549,16.9637604 L35.5393549,16.9643035 C35.5372825,17.2246384 35.4817686,17.4817741 35.3762533,17.7197764 C35.0983874,18.3454031 34.4722176,18.8398466 33.5306651,18.8398466 C33.0534342,18.8398466 32.5445354,18.6115712 32.1765959,18.1901975 Z M23.2188753,18.19049 C22.9023646,17.8279398 22.6888369,17.3227176 22.6888369,16.697634 C22.6888369,16.3372564 22.9524566,15.9517283 23.3187249,15.6582791 C23.6844502,15.3650805 24.1591745,15.156984 24.5731952,15.156984 C25.5382269,15.156984 26.1392881,15.6159997 26.4021975,16.2100003 C26.5065592,16.4458793 26.5569017,16.7037336 26.5548546,16.961755 C26.5527474,17.2217118 26.498048,17.4785529 26.3940508,17.7168102 C26.1196106,18.3436066 25.5007938,18.8398466 24.5731952,18.8398466 C24.0959642,18.8398466 23.5868566,18.6118219 23.2188753,18.19049 L23.2188753,18.19049 Z M40.1765124,28.6344656 C39.9570939,29.1023382 39.4686664,29.4608777 38.6971925,29.4608777 C37.9131016,29.4608777 37.4421791,29.102004 37.2377172,28.633254 L37.3574532,28.5776474 L37.2377172,28.6327527 C37.1535344,28.4395291 37.1155999,28.2272965 37.1203626,28.0144789 C37.1251253,27.8029566 37.1729195,27.5898048 37.2583138,27.3949101 C37.4841661,26.8802878 37.9762283,26.4746227 38.6702874,26.4860281 C39.4407169,26.4982691 39.9502841,26.9010097 40.1765124,27.4051039 C40.263631,27.599424 40.3089503,27.8098801 40.3095373,28.0228346 C40.3099933,28.2334378 40.2659592,28.4436233 40.1765124,28.6344656 L40.1765124,28.6344656 Z M45.0779579,29.3554298 C44.5861046,29.1573182 44.2132771,28.6964225 44.2132771,27.9200187 C44.2132771,27.2293436 44.5818432,26.8250572 45.0703125,26.6525973 C45.266753,26.5835381 45.483623,26.5529148 45.7028326,26.5575521 C45.9216289,26.5623646 46.1383961,26.600674 46.3455882,26.6711467 C46.9253844,26.8682975 47.3964739,27.3118553 47.3964739,27.9200605 C47.3964739,28.6158326 46.9352022,29.1144957 46.3644301,29.3374652 C46.1588402,29.4175956 45.9368733,29.4622981 45.7174967,29.4669355 C45.4965324,29.4714057 45.2769469,29.4355602 45.0779579,29.3554298 L45.0779579,29.3554298 Z" id="形状"></path>
                </g>
            </g>
        </g>
    </g>
</svg>