<?xml version="1.0" encoding="UTF-8"?>
<svg width="150px" height="40px" viewBox="0 0 150 40" version="1.1" xmlns="http://www.w3.org/2000/svg" xmlns:xlink="http://www.w3.org/1999/xlink">
    <title>编组a</title>
    <g id="页面" stroke="none" stroke-width="1" fill="none" fill-rule="evenodd">
        <g id="Artboard" transform="translate(-34.000000, -47.000000)" fill="#FFFFFF">
            <g id="编组" transform="translate(49.000000, 54.000000)">
                <path d="M3.51094213,0 C4.15035582,0 4.77762955,0.174436638 5.32507134,0.504485655 L13.0493741,5.16139223 C13.7603194,5.5900142 13.9891877,6.51381599 13.5605657,7.22476129 C13.545076,7.25045378 13.5288205,7.27567678 13.5118212,7.30039639 L9.68911554,12.859191 L9.68911554,12.859191 C9.46898394,13.1792929 9.082223,13.3406768 8.70057038,13.2733871 L8.68116955,13.2697682 C8.15010709,13.1652606 7.80243159,12.6548378 7.89749579,12.1247022 L7.90071627,12.1075947 L8.6860304,8.12519267 C8.69357847,8.08691569 8.69737938,8.0479957 8.69737938,8.0089831 C8.69737938,7.6820277 8.43613798,7.41602558 8.1108,7.40791828 L8.09550359,7.40772789 L6.821259,7.40772789 C5.72431649,7.40772789 4.83299193,8.2871753 4.81527514,9.37876908 L4.81500636,9.41191193 L4.81500636,16.9582718 L4.8156516,17.0115693 C4.85771216,18.7439784 6.94626214,19.6080171 8.20209613,18.4123092 L8.23989386,18.375444 L19.4137044,8.99843558 L20.6993248,9.77352082 C22.3594573,10.7744037 22.8930472,12.9301952 21.8911313,14.5886159 C21.596527,15.0762596 21.1874718,15.484893 20.6993248,15.7791936 L5.32507134,25.0482288 C3.66493885,26.0491116 1.50692225,25.5160718 0.505006359,23.8576511 C0.174616682,23.3107737 0,22.6841468 0,22.0453924 L0,3.50732206 C0,1.57028157 1.57190234,0 3.51094213,0 Z" id="路径"></path>
                <path d="M31.6069768,23.4989562 L33.6020823,14.4399333 C34.1284503,14.9974116 34.6575395,15.647803 35.1842341,16.4143357 L37.0124818,14.323792 C36.1970249,13.3946614 35.2864386,12.5816722 34.2677704,11.8383678 C35.8031197,10.2356176 37.0421965,8.6096391 37.979885,6.98366064 L38.4300626,4.93957343 L36.1116919,4.93957343 C36.0432293,3.98721462 35.8793107,2.94194275 35.6663037,1.80375783 L33.2278783,2.45414921 C33.4712528,3.24391018 33.6580285,4.08012767 33.8165049,4.93957343 L30.6635207,4.93957343 L30.1519552,7.26239981 L35.4842079,7.26239981 C33.9344912,9.56199792 31.4652629,11.9312808 28.0584551,14.3470202 L28.2607954,16.9021293 C29.2822935,16.1588248 30.2523086,15.4387486 31.1578882,14.6954442 L29.2190549,23.4989562 L31.6069768,23.4989562 Z M39.5423249,15.9331942 L41.9351711,5.07980692 L47.5314143,5.07980692 L45.1385681,15.9331942 L47.5999863,15.9331942 L50.5052192,2.75574113 L40.0325816,2.75574113 L37.1273486,15.9331942 L39.5423249,15.9331942 Z M34.4226064,23.6993737 C37.1676842,22.6291764 39.3080291,21.1402063 40.8771281,19.185933 C41.2403606,18.6973647 41.5906127,18.162266 41.9511183,17.5806371 L41.2538863,20.7446986 C40.9052702,22.3267294 41.4512097,23.1177447 42.9149385,23.1177447 L45.2383175,23.1177447 C46.0050326,23.1177447 46.626891,22.9316235 47.098766,22.5826461 C47.5525339,22.2104036 48.0979281,21.0006153 48.7014614,18.9998117 L46.6067116,18.2785918 C46.2834019,19.5349104 46.0264122,20.2793954 45.8487227,20.5585773 C45.6812867,20.7912289 45.4930167,20.9075547 45.2839126,20.9075547 L44.1222231,20.9075547 C43.7504824,20.9075547 43.639113,20.6749031 43.7365204,20.2328651 L44.7105945,15.8124851 L42.8751251,15.8124851 C43.5466145,14.3467801 44.1248414,12.6716887 44.609806,10.7872109 L45.5736267,6.41336117 L43.2502477,6.41336117 L42.286427,10.7872109 C41.5885405,13.5324996 40.6265742,15.7892199 39.4056548,17.5341068 C38.1922618,19.1394027 36.2453138,20.4887819 33.5699374,21.5589791 L34.4226064,23.6993737 Z M62.0390714,11.0730689 L62.5614765,8.7021501 L59.5208702,8.7021501 L59.9408429,6.79611734 L62.6797097,6.79611734 L63.1816284,4.51817575 L60.4427616,4.51817575 L60.9856532,2.05427975 L58.6181582,2.05427975 L57.1533752,8.7021501 L56.0160491,8.7021501 L57.0557378,3.98355681 L54.7346642,3.98355681 L53.6949756,8.7021501 L52.5808603,8.7021501 L52.0584551,11.0730689 L62.0390714,11.0730689 Z M63.525131,18.2379958 L65.5459702,9.1062468 L70.8224346,9.1062468 L68.8015955,18.2379958 L71.1725178,18.2379958 L73.6857442,6.88125211 L69.6412296,6.88125211 C69.8443175,6.27864938 70.0474053,5.67604665 70.2375069,5.02708987 L74.6539309,5.02708987 L75.1565762,2.75574113 L64.0457832,2.75574113 L63.543138,5.02708987 L67.7271186,5.02708987 C67.542146,5.65286963 67.3339291,6.27864938 67.1308412,6.88125211 L63.6906794,6.88125211 L61.177453,18.2379958 L63.525131,18.2379958 Z M59.7792126,23.5991649 C62.1286973,22.8325158 63.9235106,21.7406217 65.204929,20.3467142 C66.540257,18.8134161 67.5423249,16.7922503 68.1981725,14.2367533 L69.0939457,10.17119 L66.7277981,10.17119 L65.8320249,14.2367533 C65.3297384,16.0952966 64.597546,17.6285948 63.645685,18.7901843 C62.6911013,19.8588466 61.1279365,20.7416547 58.9227557,21.485072 L59.7792126,23.5991649 Z M50.8088967,23.4488518 C56.1559839,21.7961961 59.9033636,18.3512238 62.0793319,13.090658 L60.077276,12.6018444 C59.4151478,14.1381158 58.5853109,15.4881725 57.5645845,16.6520145 L58.6694376,11.6242171 L56.3513362,11.6242171 L54.9958451,17.7925797 L56.433068,17.7925797 C54.6994981,19.352128 52.524836,20.4926931 49.9039666,21.237552 L50.8088967,23.4488518 Z M52.0943843,18.5887265 C53.2103306,17.411668 54.2766577,15.7268588 55.2651357,13.5573784 L53.3674407,12.7265136 C52.6044755,14.5036411 51.6867893,15.934575 50.6555324,17.0423948 L52.0943843,18.5887265 Z M69.082362,23.5991649 L71.2985386,21.7840864 C70.5000376,20.5507639 69.497185,19.2941711 68.2615683,18.0375783 L66.2881002,19.5966842 C67.5575934,21.0161686 68.4984848,22.3425721 69.082362,23.5991649 Z M77.3451259,23.5490605 L80.784351,7.93704834 C82.0137343,6.35726139 83.129544,4.66131363 84.0751566,2.8956694 L82.0426997,1.80375783 C80.1876265,5.38151063 77.8601828,8.47138804 75.0552505,11.0966222 L75.2938313,13.6986243 C76.0967961,13.0016594 76.8584911,12.2814624 77.6021101,11.5380333 L74.9561587,23.5490605 L77.3451259,23.5490605 Z M87.5073626,23.4989562 L88.9338371,17.0389031 L95.3752426,17.0389031 L95.8986253,14.6686678 L89.4572199,14.6686678 L90.1294075,11.6245421 L95.9429503,11.6245421 L96.4509395,9.32401964 L90.6373967,9.32401964 L92.2537257,2.00417537 L89.7887836,2.00417537 L88.1724545,9.32401964 L82.5449451,9.32401964 L82.036956,11.6245421 L87.6644654,11.6245421 L86.9922777,14.6686678 L80.6903974,14.6686678 L80.1670146,17.0389031 L86.468895,17.0389031 L85.0424205,23.4989562 L87.5073626,23.4989562 Z M94.1573533,8.66805846 C95.3038403,7.18805203 96.3566403,5.4999197 97.302714,3.55741127 L95.1026602,2.95615866 C94.1229469,4.9449173 93.127126,6.58679942 92.091858,7.88180504 L94.1573533,8.66805846 Z M84.92063,8.5177453 L87.3319415,7.93394988 C87.199833,6.20591542 86.9282885,4.68804731 86.545742,3.35699374 L84.0751566,4.10425188 C84.483731,5.52871272 84.7655555,6.9998772 84.92063,8.5177453 Z M100.743575,23.5490605 L104.224845,7.76278902 C105.446175,6.22833553 106.497003,4.62413415 107.4238,2.95018489 L105.447157,1.9039666 C103.542293,5.48435808 101.112614,8.59976365 98.2045929,11.2501833 L98.4381464,13.66811 C99.3508711,12.9008833 100.199017,12.1104072 101.023927,11.3199312 L98.3270961,23.5490605 L100.743575,23.5490605 Z M118.184472,11.223382 L120,2.95615866 L108.587971,2.95615866 L106.772443,11.223382 L118.184472,11.223382 Z M116.280862,9.06889353 L109.528184,9.06889353 L110.391372,5.16075157 L117.14405,5.16075157 L116.280862,9.06889353 Z M105.404476,23.4488518 L105.680509,22.1996276 L114.344561,22.1996276 L114.068528,23.4488518 L116.477783,23.4488518 L118.74739,13.177453 L105.334326,13.177453 L103.064718,23.4488518 L105.404476,23.4488518 Z M114.820008,19.9415449 L106.121086,19.9415449 L107.142414,15.3319415 L115.841336,15.3319415 L114.820008,19.9415449 Z" id="视频伴侣" stroke="#FFFFFF" stroke-width="0.5" fill-rule="nonzero"></path>
            </g>
        </g>
    </g>
</svg>