<?xml version="1.0" encoding="UTF-8"?>
<svg width="50px" height="50px" viewBox="0 0 50 50" version="1.1" xmlns="http://www.w3.org/2000/svg" xmlns:xlink="http://www.w3.org/1999/xlink">
    <title>打赏</title>
    <g id="页面-1" stroke="none" stroke-width="1" fill="none" fill-rule="evenodd">
        <g id="首页备份" transform="translate(-553.000000, -2375.000000)" fill="#FFFFFF" fill-rule="nonzero">
            <g id="底" transform="translate(240.000000, 2353.000000)">
                <g id="编组-10" transform="translate(300.000000, 22.000000)">
                    <path d="M32.1433588,35.6204097 L33.0827053,43.2693881 L43.8770923,43.2693881 L44.8164388,35.6204097 L32.1433588,35.6204097 Z M48.7519768,20.6326571 L28.2078208,20.6326571 L29.9164597,33.8897978 L47.0433379,33.8897978 L48.7519768,20.6326571 Z M46.0877957,6.75510845 L30.8720019,6.75510845 C30.4553975,6.75687861 30.0925667,7.04210687 29.9893401,7.44898591 L29.9893401,7.44898591 L29.2362433,10.020414 L30.8558062,10.020414 C31.1625152,10.0203483 31.4459538,10.1852604 31.599327,10.4530139 C31.7527003,10.7207675 31.7527003,11.0506725 31.599327,11.3184261 C31.4459538,11.5861796 31.1625152,11.7510917 30.8558062,11.751026 L30.8558062,11.751026 L27.6166803,11.751026 C27.5855157,11.7383174 27.5506712,11.7383174 27.5195066,11.751026 L27.5195066,11.751026 L27.5195066,11.7918423 C27.5122137,11.8073412 27.5122137,11.825323 27.5195066,11.8408219 L27.5195066,11.8408219 L26.7097251,14.9755152 L50.2257791,14.9755152 L49.4159976,11.8408219 C49.3955551,11.7713154 49.3339501,11.7222868 49.2621391,11.7183729 L49.2621391,11.7183729 L42.3223119,11.7183729 C42.015603,11.7184386 41.7321644,11.5535266 41.5787911,11.285773 C41.4254178,11.0180194 41.4254178,10.6881145 41.5787911,10.4203609 C41.7321644,10.1526073 42.015603,9.9876953 42.3223119,9.98776099 L42.3223119,9.98776099 L47.6425762,9.98776099 L46.9704576,7.44898591 C46.8672309,7.04210686 46.5044002,6.75687859 46.0877957,6.75510845 L46.0877957,6.75510845 Z M47.1324139,16.7061272 L29.8273838,16.7061272 L30.0946116,18.8775554 L28.3616793,18.8775554 L28.0944514,16.7061272 L26.5882579,16.7061272 C26.0999156,16.6905607 25.6446429,16.4535853 25.3492922,16.0612293 C25.029624,15.6537782 24.9213825,15.1172897 25.0577709,14.6163316 L25.0577709,14.6163316 L25.8675523,11.4000056 C26.0650966,10.6249022 26.7282929,10.0612172 27.5195066,9.99592423 L27.5195066,9.99592423 L28.329288,6.98367986 C28.631121,5.81673266 29.6757087,5.00180782 30.8720019,5.00000335 L30.8720019,5.00000335 L46.0877957,5.00000335 C47.2871026,4.99809238 48.3360142,5.81379266 48.6386074,6.98367986 L48.6386074,6.98367986 L49.4483889,9.99592423 C50.2488056,10.0511532 50.9241928,10.6168803 51.1246365,11.4000056 L51.1246365,11.4000056 L51.934418,14.6163316 C52.0756098,15.110146 51.9862053,15.6418958 51.6914836,16.0612293 C51.3602633,16.4863827 50.8417565,16.7186927 50.3067572,16.6816374 L50.3067572,16.6816374 L48.832955,16.6816374 L48.565727,18.8775554 L50.6954523,18.8775554 L48.5495314,35.6204097 L46.5493712,35.6204097 L45.3994815,45 L31.5603161,45 L30.4104264,35.6204097 L28.4102662,35.6204097 L26.2643453,18.8775554 L46.8327947,18.8775554 L47.1324139,16.7061272 Z" id="形状结合"></path>
                </g>
            </g>
        </g>
    </g>
</svg>