<?xml version="1.0" encoding="UTF-8"?>
<svg width="50px" height="50px" viewBox="0 0 50 50" version="1.1" xmlns="http://www.w3.org/2000/svg" xmlns:xlink="http://www.w3.org/1999/xlink">
    <title>推荐</title>
    <g id="页面-1" stroke="none" stroke-width="1" fill="none" fill-rule="evenodd">
        <g id="首页备份" transform="translate(-779.000000, -2378.000000)" fill="#FFFFFF" fill-rule="nonzero">
            <g id="底" transform="translate(240.000000, 2353.000000)">
                <g id="编组-10备份" transform="translate(523.000000, 25.000000)">
                    <g id="编组" transform="translate(16.000000, 0.000000)">
                        <path d="M35.6071429,7 C36.4950893,7 37.2142857,7.71919643 37.2142857,8.60714286 L37.2142857,8.60714286 L37.2142857,16.590625 L42.5258929,21.315625 C42.8272321,21.6129464 42.9839286,22.0026786 42.9959821,22.3964286 C43,22.4205357 43,22.4446429 43,22.46875 L43,22.46875 L43,41.3928571 C43,42.2808036 42.2808036,43 41.3928571,43 L41.3928571,43 L8.60714286,43 C7.71919643,43 7,42.2808036 7,41.3928571 L7,41.3928571 L7,22.46875 C7,22.3883929 7.00401786,22.3120536 7.01607143,22.2357143 C7.06428571,21.8982143 7.21294643,21.5727679 7.47410714,21.3116071 L7.47410714,21.3116071 L12.7857143,16.6107143 L12.7857143,8.60714286 C12.7857143,7.71919643 13.5049107,7 14.3928571,7 L14.3928571,7 Z M28.7125,35.1973214 L26.1370536,37.3629464 C25.8236607,37.6763393 25.4138393,37.8330357 25,37.8330357 C24.5861607,37.8330357 24.1763393,37.6763393 23.8629464,37.3629464 L23.8629464,37.3629464 L21.2955357,35.2053571 L11.8495536,41.0714286 L38.1142857,41.0714286 L28.7125,35.1973214 Z M41.0714286,24.8071429 L30.2633929,33.8955357 L41.0714286,40.6415179 L41.0714286,24.8071429 Z M8.92857143,24.8071429 L8.92857143,40.6133929 L19.7446429,33.8995536 L8.92857143,24.8071429 Z M35.2857143,8.92857143 L14.7142857,8.92857143 L14.7142857,27.1575893 L25,35.7959821 L35.2857143,27.1575893 L35.2857143,8.92857143 Z M37.2142857,19.0857143 L37.2142857,25.5383929 L40.8825893,22.4566964 L37.2142857,19.0857143 Z M12.7857143,19.1138393 L9.11741071,22.4566964 L12.7857143,25.5383929 L12.7857143,19.1138393 Z M27.7321429,21.7857143 C28.2665179,21.7857143 28.6964286,22.215625 28.6964286,22.75 C28.6964286,23.284375 28.2665179,23.7142857 27.7321429,23.7142857 L27.7321429,23.7142857 L22.2678571,23.7142857 C21.7334821,23.7142857 21.3035714,23.284375 21.3035714,22.75 C21.3035714,22.215625 21.7334821,21.7857143 22.2678571,21.7857143 L22.2678571,21.7857143 Z M30.1428571,15.3571429 C30.6772321,15.3571429 31.1071429,15.7870536 31.1071429,16.3214286 C31.1071429,16.8558036 30.6772321,17.2857143 30.1428571,17.2857143 L30.1428571,17.2857143 L19.8571429,17.2857143 C19.3227679,17.2857143 18.8928571,16.8558036 18.8928571,16.3214286 C18.8928571,15.7870536 19.3227679,15.3571429 19.8571429,15.3571429 L19.8571429,15.3571429 Z" id="形状结合"></path>
                    </g>
                </g>
            </g>
        </g>
    </g>
</svg>