<?xml version="1.0" encoding="UTF-8" standalone="no"?>
<svg width="183px" height="40px" viewBox="0 0 183 40" version="1.1" xmlns="http://www.w3.org/2000/svg" xmlns:xlink="http://www.w3.org/1999/xlink" xmlns:sketch="http://www.bohemiancoding.com/sketch/ns">
    <!-- Generator: Sketch 3.3.2 (12043) - http://www.bohemiancoding.com/sketch -->
    <title>lightning-logo</title>
    <desc>Created with Sketch.</desc>
    <defs></defs>
    <g id="Page-1" stroke="none" stroke-width="1" fill="none" fill-rule="evenodd" sketch:type="MSPage">
        <g id="Artboard-1" sketch:type="MSArtboardGroup" transform="translate(-1628.000000, -989.000000)">
            <g id="lightning-logo" sketch:type="MSLayerGroup" transform="translate(1628.000000, 989.000000)">
                <g id="Page-1" sketch:type="MSShapeGroup">
                    <g id="lightning-logo">
                        <g id="Page-1">
                            <g id="lightninglogo">
                                <g id="Shape-+-Shape">
                                    <path d="M3.05542696,32.3392257 C-2.82891877,22.5121527 2.18299681,4.51580089 11.5342922,0.887630402 C10.3528328,4.59396449 9.87165233,7.87636623 9.57761159,10.6931809 C12.489195,11.7431623 15.5828019,12.3643905 18.399122,13.0108607 C16.0137746,18.2433982 13.6571792,23.026021 11.4677808,27.1176661 C16.2284053,22.0670589 20.7458273,16.2321074 24.5419469,9.95756912 C22.1998535,9.03643394 19.6574514,8.31607936 17.315376,7.39496223 C18.1751236,5.04756254 19.2008253,3.101706 20.0605909,0.754324359 C26.9131886,1.94562862 35.9192986,19.5090924 29.4112017,31.5522632 C24.8717294,40.0878222 9.78573882,42.8437165 3.05542696,32.3392257 L3.05542696,32.3392257 L3.05542696,32.3392257 Z" id="Shape" fill="#73E462"></path>
                                    <path d="M49.594611,11.8145403 L49.2159442,7.10757854 L43.3593319,7.10757854 L43.7379986,11.8145403 L49.594611,11.8145403 L49.594611,11.8145403 Z M49.594611,30.9460714 L49.594611,13.4847482 L43.7379986,13.4847482 L43.7379986,30.9460714 L49.594611,30.9460714 L49.594611,30.9460714 Z M54.592918,27.0742025 L55.2997433,22.2154098 L56.0065685,27.0742025 L60.7776889,27.0742025 L59.2882873,16.8757743 L56.0570545,16.8757743 L56.7638797,12.0928971 L51.9927815,12.0928971 L49.7965547,27.0742025 L54.592918,27.0742025 L54.592918,27.0742025 Z M57.8998798,29.0227895 L60.0203778,29.0227895 C60.2938469,29.0143619 60.5168524,28.9215688 60.6977566,28.7401966 C60.878683,28.5588243 60.971248,28.3352916 60.9796549,28.0611486 L60.9796549,10.0683946 L51.1092333,10.0683946 L51.1092333,8.14511268 L66.8615102,8.14511268 L66.8615102,28.541969 C66.8573068,28.9848429 66.7479057,29.3897256 66.5333294,29.748234 C66.3187531,30.1109563 66.0284479,30.4019769 65.6666173,30.6170819 C65.3089901,30.832187 64.9050804,30.9418576 64.4633174,30.9460714 L57.8998798,30.9460714 L57.8998798,29.0227895 L57.8998798,29.0227895 Z M88.4228938,22.1901046 C88.4186903,22.396782 88.3471649,22.5697044 88.2083175,22.708894 C88.06947,22.8480835 87.8969727,22.9197852 87.6908033,22.923999 L86.3023736,22.923999 L86.3023736,18.5460268 L88.4228715,18.5460268 L88.4228715,22.1901046 L88.4228938,22.1901046 L88.4228938,22.1901046 Z M88.4228938,12.2700556 L88.4228938,16.6227226 L86.3023958,16.6227226 L86.3023958,12.2700556 L88.4228938,12.2700556 L88.4228938,12.2700556 Z M78.2747996,12.2700556 L80.3952975,12.2700556 L80.3952975,16.6227226 L78.2747996,16.6227226 L78.2747996,12.2700556 L78.2747996,12.2700556 Z M78.2747996,18.5460045 L80.3952975,18.5460045 L80.3952975,22.9239767 L78.2747996,22.9239767 L78.2747996,18.5460045 L78.2747996,18.5460045 Z M72.5191591,24.8472586 L80.3952975,24.8472586 L80.3952975,30.895461 L95.2892692,30.895461 L95.2892692,28.9721792 L86.3023958,28.9721792 L86.3023958,24.8472586 L91.8055844,24.8472586 C92.2473697,24.8430448 92.6512571,24.7333742 93.0088843,24.5182691 C93.3707149,24.3031641 93.6610201,24.0121435 93.8755965,23.6494213 C94.0901728,23.2909128 94.1995515,22.8860078 94.203755,22.4431563 L94.203755,10.3467737 L86.3023736,10.3467737 L86.3023736,7.03164075 L80.3952753,7.03164075 L80.3952753,10.3467737 L72.5191368,10.3467737 L72.5191368,24.8472586 L72.5191591,24.8472586 L72.5191591,24.8472586 Z M104.531575,11.8904558 L103.774263,11.8904558 L103.774263,23.531323 L104.531575,23.531323 L104.531575,11.8904558 L104.531575,11.8904558 Z M111.347464,11.8904558 L110.564888,11.8904558 L110.564888,23.531323 L111.347464,23.531323 L111.347464,11.8904558 L111.347464,11.8904558 Z M121.59653,10.2708582 L121.192621,14.9272096 L123.691785,14.9272096 L124.146181,10.2708582 L121.59653,10.2708582 L121.59653,10.2708582 Z M117.683715,14.9272096 L117.229342,10.2708582 L114.730177,10.2708582 L115.134087,14.9272096 L117.683715,14.9272096 L117.683715,14.9272096 Z M120.813976,14.9272096 L120.35958,10.2708582 L117.860416,10.2708582 L118.264325,14.9272096 L120.813976,14.9272096 L120.813976,14.9272096 Z M114.629183,9.41043792 L124.524847,9.41043792 L124.524847,7.46185088 L114.629183,7.46185088 L114.629183,9.41043792 L114.629183,9.41043792 Z M115.209793,15.7369972 L115.209793,17.2047638 L119.551761,17.2047638 L118.112845,21.026 L114.629183,21.026 L114.629183,22.9492819 L117.885659,22.9492819 L117.885659,28.7950207 C117.881455,29.0016982 117.814133,29.1746205 117.683693,29.3138101 C117.553275,29.4529996 117.384981,29.5247013 117.178811,29.5289151 L116.068099,29.5289151 L116.068099,30.9966817 L118.996416,30.9966817 C119.438179,30.9924679 119.842089,30.8785835 120.199716,30.6592646 C120.561546,30.4399457 120.851852,30.1489252 121.066428,29.7819891 C121.281004,29.415053 121.390383,29.0101481 121.394609,28.5672742 L121.394609,22.9492819 L124.52487,22.9492819 L124.52487,21.026 L121.571287,21.026 L123.515084,15.7369972 L115.209793,15.7369972 L115.209793,15.7369972 Z M100.845946,7.53776638 L107.232683,7.53776638 L107.232683,9.00553295 L103.42084,9.00553295 L103.42084,25.1003103 L104.859755,25.1003103 L104.859755,9.56226892 L107.232683,9.56226892 L107.232683,26.5174665 L104.607304,30.9966817 L101.578014,30.9966817 L104.203394,26.5427717 L100.845946,26.5427717 L100.845946,7.53776638 L100.845946,7.53776638 Z M107.687079,7.53776638 L114.225273,7.53776638 L114.225273,26.7705182 C114.22107,27.0446612 114.153748,27.2893075 114.027533,27.5128402 C113.897115,27.7321591 113.724617,27.9050815 113.505815,28.0358434 C113.291239,28.1665831 113.05142,28.2340709 112.786358,28.2382847 L110.640617,28.2382847 L110.640617,26.7705182 L111.170741,26.7705182 C111.313792,26.7663044 111.427396,26.7241217 111.515736,26.6355424 C111.604097,26.5469855 111.646176,26.4331011 111.65038,26.2896977 L111.65038,9.00553295 L110.362944,9.00553295 L110.362944,30.9966817 L107.687079,30.9966817 L107.687079,7.53776638 L107.687079,7.53776638 Z M132.782611,6.98103041 L129.526135,18.2676254 L132.378723,18.2676254 L132.378723,30.9713765 L138.260579,30.9713765 L138.260579,12.9786225 L136.973143,12.9786225 L138.689731,6.98105271 L132.782611,6.98105271 L132.782611,6.98103041 L132.782611,6.98103041 Z M139.724737,22.9492819 L143.309394,20.7729484 L143.309394,30.9713765 L153.104086,30.9713765 L153.104086,29.0733998 L149.292243,29.0733998 L149.292243,17.1288483 L153.053601,14.8259889 L153.053601,11.2831095 L149.292243,13.5859688 L149.292243,7.00633558 L143.309372,7.00633558 L143.309372,17.2553741 L139.724715,19.4317076 L139.724715,22.9492819 L139.724737,22.9492819 L139.724737,22.9492819 Z M177.215098,28.8456533 C177.215098,28.9764153 177.173019,29.0818498 177.093087,29.1661929 C177.013155,29.2547721 176.89955,29.2969548 176.760703,29.3011686 L175.069357,29.3011686 L175.069357,25.2015532 L177.215098,25.2015532 L177.215098,28.8456533 L177.215098,28.8456533 Z M177.215098,12.5737176 C177.215098,12.7044795 177.173019,12.8141278 177.093087,12.9069208 C177.013155,12.9997139 176.89955,13.0503242 176.760703,13.054538 L175.069357,13.054538 L175.069357,8.92961745 L177.215098,8.92961745 L177.215098,12.5737176 L177.215098,12.5737176 Z M165.123207,28.8456533 C165.119004,28.9764153 165.076925,29.0818498 164.992766,29.1661929 C164.904427,29.2547721 164.79923,29.2969548 164.668811,29.3011686 L162.952223,29.3011686 L162.952223,25.2015532 L165.123207,25.2015532 L165.123207,28.8456533 L165.123207,28.8456533 Z M165.123207,12.5737176 C165.119004,12.7044795 165.076925,12.8141278 164.992766,12.9069208 C164.904427,12.9997139 164.79923,13.0503242 164.668811,13.054538 L162.952223,13.054538 L162.952223,8.92961745 L165.123207,8.92961745 L165.123207,12.5737176 L165.123207,12.5737176 Z M170.676882,23.7084815 L170.676882,30.7942404 L180.118151,30.7942404 C180.408456,30.7900266 180.669315,30.7183249 180.900727,30.5791353 C181.132139,30.4399457 181.313043,30.254382 181.447687,30.0223993 C181.586535,29.7904167 181.653857,29.5331513 181.65806,29.2505583 L181.65806,23.7084815 L170.676882,23.7084815 L170.676882,23.7084815 Z M170.676882,7.43654571 L170.676882,14.5223046 L180.118151,14.5223046 C180.408456,14.5180908 180.669315,14.4463891 180.900727,14.3071995 C181.132139,14.16801 181.313043,13.9824462 181.447687,13.7504636 C181.586535,13.5184809 181.653857,13.2612155 181.65806,12.9786225 L181.65806,7.43654571 L170.676882,7.43654571 L170.676882,7.43654571 Z M158.559747,7.43654571 L158.559747,14.5223046 L168.026259,14.5223046 C168.308135,14.5180908 168.560587,14.4463891 168.787774,14.3071995 C169.01496,14.16801 169.20009,13.9824462 169.334734,13.7504636 C169.469378,13.5184809 169.536678,13.2612155 169.540904,12.9786225 L169.540904,7.43654571 L158.559747,7.43654571 L158.559747,7.43654571 Z M158.559747,23.7084815 L158.559747,30.7942404 L168.026259,30.7942404 C168.308135,30.7900266 168.560587,30.7183249 168.787774,30.5791353 C169.014983,30.4399457 169.20009,30.254382 169.334734,30.0223993 C169.469378,29.7904167 169.536678,29.5331513 169.540904,29.2505583 L169.540904,23.7084815 L158.559747,23.7084815 L158.559747,23.7084815 Z M174.917877,15.5092507 L175.34703,16.9011018 L173.201289,16.9011018 L173.201289,15.2055664 L167.268948,15.2055664 L167.268948,16.9011018 L158.282075,16.9011018 L158.282075,18.8243836 L164.290167,18.8243836 L159.821962,21.4815376 L158.282075,21.4815376 L158.282075,22.923999 L165.678574,22.923999 L170.222508,19.9125504 L174.842171,22.923999 L182.188185,22.923999 L182.188185,21.4815376 L180.572568,21.4815376 L176.154872,18.8243836 L182.188185,18.8243836 L182.188185,16.9011018 L180.219145,16.9011018 L179.789992,15.5092507 L174.917877,15.5092507 L174.917877,15.5092507 Z" id="Shape" fill="#00C675"></path>
                                </g>
                            </g>
                        </g>
                    </g>
                </g>
            </g>
        </g>
    </g>
</svg>
